<svg width="56" height="55" viewBox="0 0 56 55" fill="none" xmlns="http://www.w3.org/2000/svg">
<g clip-path="url(#clip0_67_307)">
<path d="M27.8917 0C12.4895 0 0 12.4697 0 27.8524C0 40.1585 7.99181 50.5987 19.0741 54.2816C20.468 54.5394 20.9799 53.6774 20.9799 52.9417C20.9799 52.2777 20.9538 50.0834 20.942 47.7561C13.1823 49.441 11.545 44.4699 11.545 44.4699C10.2762 41.2505 8.44812 40.3947 8.44812 40.3947C5.91762 38.6659 8.63888 38.7013 8.63888 38.7013C11.4397 38.8979 12.9146 41.5716 12.9146 41.5716C15.4022 45.8297 19.4394 44.5986 21.0311 43.8871C21.2813 42.0867 22.0043 40.8582 22.8018 40.1627C16.6068 39.4582 10.0942 37.07 10.0942 26.3978C10.0942 23.3571 11.1838 20.8723 12.9682 18.9218C12.6785 18.2202 11.7239 15.3875 13.2383 11.551C13.2383 11.551 15.5805 10.8024 20.9105 14.406C23.1352 13.7887 25.5213 13.4794 27.8917 13.4689C30.2621 13.4794 32.65 13.7887 34.879 14.406C40.2027 10.8024 42.5416 11.551 42.5416 11.551C44.0597 15.3875 43.1047 18.2202 42.8151 18.9218C44.6033 20.8723 45.6855 23.3569 45.6855 26.3978C45.6855 37.0953 39.1606 39.451 32.9499 40.1404C33.9502 41.0048 34.8416 42.6999 34.8416 45.2982C34.8416 49.0248 34.8092 52.0243 34.8092 52.9417C34.8092 53.6829 35.3113 54.5514 36.7253 54.2779C47.8015 50.5909 55.7832 40.1544 55.7832 27.8524C55.7832 12.4697 43.2954 0 27.8917 0Z" fill="#161614"/>
<path d="M10.4463 39.6764C10.385 39.8147 10.1667 39.8562 9.96829 39.7614C9.76595 39.6705 9.6522 39.4818 9.71782 39.3428C9.77798 39.2004 9.99629 39.1607 10.1982 39.2563C10.401 39.347 10.5165 39.5375 10.4463 39.6764ZM11.8183 40.8988C11.6853 41.022 11.4252 40.9648 11.2486 40.7701C11.0662 40.5759 11.0321 40.3164 11.167 40.1913C11.3042 40.0683 11.5564 40.1257 11.7393 40.3202C11.9217 40.5165 11.9572 40.7745 11.818 40.899M12.7595 42.4628C12.5885 42.5815 12.3089 42.4703 12.1363 42.2226C11.9655 41.9751 11.9655 41.678 12.14 41.5589C12.3133 41.4399 12.5885 41.5469 12.7635 41.7927C12.9341 42.0445 12.9341 42.3416 12.7593 42.4631M14.3512 44.2744C14.1983 44.4426 13.8728 44.3976 13.6343 44.1678C13.3906 43.9432 13.3226 43.6245 13.4759 43.4561C13.6306 43.2875 13.9581 43.3349 14.1983 43.5627C14.4404 43.7868 14.5141 44.1079 14.3512 44.2744ZM16.4083 44.886C16.3411 45.104 16.0274 45.2032 15.7116 45.1106C15.3961 45.0151 15.1896 44.7595 15.2533 44.5391C15.3189 44.3196 15.6339 44.2163 15.9522 44.3154C16.2672 44.4105 16.4739 44.6641 16.4083 44.886ZM18.7498 45.1453C18.7577 45.3751 18.4897 45.5656 18.1581 45.5697C17.8245 45.577 17.5548 45.3911 17.5513 45.1652C17.5513 44.9332 17.8131 44.7445 18.1465 44.739C18.4781 44.7325 18.7498 44.917 18.7498 45.1453ZM21.0497 45.0573C21.0895 45.2814 20.859 45.5116 20.5298 45.5728C20.206 45.6318 19.9063 45.4935 19.865 45.2713C19.8247 45.0415 20.0597 44.8115 20.3828 44.7519C20.7126 44.6947 21.0077 44.8294 21.0497 45.0573Z" fill="#161614"/>
</g>
<defs>
<clipPath id="clip0_67_307">
<rect width="56" height="54.4" fill="white"/>
</clipPath>
</defs>
</svg>
