<svg width="50" height="50" viewBox="0 0 50 50" fill="none" xmlns="http://www.w3.org/2000/svg">
<path d="M45.2294 26.4791C45.0357 26.6744 44.8053 26.8294 44.5514 26.9351C44.2975 27.0409 44.0252 27.0954 43.7502 27.0954C43.4752 27.0954 43.2029 27.0409 42.949 26.9351C42.6951 26.8294 42.4647 26.6744 42.271 26.4791L41.6669 25.875V42.2916C41.6289 43.2661 41.2064 44.1859 40.4919 44.8497C39.7774 45.5134 38.829 45.8671 37.8544 45.8333H33.3335C32.781 45.8333 32.2511 45.6138 31.8604 45.2231C31.4697 44.8324 31.2502 44.3025 31.2502 43.75V31.4583C31.2502 30.9058 31.0307 30.3759 30.64 29.9851C30.2493 29.5944 29.7194 29.375 29.1669 29.375H20.8335C20.281 29.375 19.7511 29.5944 19.3604 29.9851C18.9697 30.3759 18.7502 30.9058 18.7502 31.4583V43.75C18.7502 44.3025 18.5307 44.8324 18.14 45.2231C17.7493 45.6138 17.2194 45.8333 16.6669 45.8333H12.146C11.1714 45.8671 10.223 45.5134 9.5085 44.8497C8.79399 44.1859 8.37151 43.2661 8.33353 42.2916V25.875L7.72936 26.4791C7.53569 26.6744 7.30527 26.8294 7.0514 26.9351C6.79753 27.0409 6.52522 27.0954 6.2502 27.0954C5.97517 27.0954 5.70287 27.0409 5.449 26.9351C5.19512 26.8294 4.9647 26.6744 4.77103 26.4791C4.57576 26.2854 4.42078 26.055 4.31501 25.8012C4.20924 25.5473 4.15479 25.275 4.15479 25C4.15479 24.7249 4.20924 24.4526 4.31501 24.1988C4.42078 23.9449 4.57576 23.7145 4.77103 23.5208L23.521 4.77079C23.7147 4.57552 23.9451 4.42053 24.199 4.31476C24.4529 4.209 24.7252 4.15454 25.0002 4.15454C25.2752 4.15454 25.5475 4.209 25.8014 4.31476C26.0553 4.42053 26.2857 4.57552 26.4794 4.77079L45.2294 23.5208C45.4246 23.7145 45.5796 23.9449 45.6854 24.1988C45.7912 24.4526 45.8456 24.7249 45.8456 25C45.8456 25.275 45.7912 25.5473 45.6854 25.8012C45.5796 26.055 45.4246 26.2854 45.2294 26.4791Z" fill="#434361"/>
</svg>
