<svg width="56" height="56" viewBox="0 0 56 56" fill="none" xmlns="http://www.w3.org/2000/svg">
<g clip-path="url(#clip0_40_222)">
<path d="M0 0H55.0508V56H0V0Z" fill="#F0DB4F"/>
<path d="M50.5453 42.6442C50.1424 40.089 48.5045 37.9438 43.6535 35.9423C41.9685 35.1544 40.0899 34.5902 39.5299 33.2913C39.3311 32.5354 39.3049 32.1096 39.4305 31.6518C39.7916 30.1666 41.5342 29.7035 42.9157 30.1293C43.8053 30.4327 44.6478 31.1301 45.1554 32.2426C47.5311 30.6777 47.5259 30.6883 49.1848 29.613C48.5777 28.6549 48.2533 28.213 47.8556 27.8031C46.427 26.1796 44.4803 25.3438 41.3667 25.4077C40.8277 25.4769 40.2835 25.5514 39.7445 25.6206C38.1903 26.0199 36.7094 26.8503 35.8407 27.9628C33.2347 30.9704 33.9778 36.235 37.1489 38.4016C40.273 40.7864 44.8623 41.3294 45.4484 43.5598C46.0188 46.2906 43.4756 47.1742 40.9481 46.8602C39.0851 46.4663 38.0491 45.5028 36.9291 43.7514C34.8674 44.9651 34.8674 44.9651 32.7481 46.2054C33.2504 47.3233 33.7789 47.829 34.6215 48.7978C38.609 52.9126 48.5882 52.7104 50.3779 46.4822C50.4511 46.2692 50.9326 44.8426 50.5453 42.6442ZM29.9274 25.7377H24.7782C24.7782 30.2624 24.7573 34.7552 24.7573 39.2799C24.7573 42.1597 24.9038 44.8 24.4433 45.6092C23.6898 47.2008 21.7379 47.0038 20.8483 46.695C19.943 46.2426 19.4825 45.5985 18.9487 44.6883C18.8022 44.4274 18.6923 44.2251 18.6556 44.2092C17.2585 45.0769 15.8664 45.9498 14.4692 46.8175C15.1653 48.2708 16.1909 49.5324 17.5044 50.3521C19.4667 51.5498 22.1041 51.9171 24.862 51.273C26.6569 50.7407 28.2058 49.6388 29.0169 47.962C30.1891 45.7635 29.9379 43.1019 29.9274 40.1582C29.9536 35.3567 29.9274 30.5552 29.9274 25.7377Z" fill="#323330"/>
</g>
<defs>
<clipPath id="clip0_40_222">
<rect width="55.0508" height="56" fill="white"/>
</clipPath>
</defs>
</svg>
