<svg width="42" height="56" viewBox="0 0 42 56" fill="none" xmlns="http://www.w3.org/2000/svg">
<g clip-path="url(#clip0_40_380)">
<path d="M13.4498 43.2905C13.4498 43.2905 11.3077 44.5327 14.9743 44.953C19.4165 45.4583 21.6866 45.3859 26.5819 44.4619C26.5819 44.4619 27.869 45.2667 29.6662 45.9637C18.6926 50.6537 4.83043 45.692 13.4498 43.2905ZM12.1088 37.1703C12.1088 37.1703 9.70624 38.9438 13.3756 39.3222C18.1208 39.8104 21.8681 39.8504 28.3525 38.6052C28.3525 38.6052 29.2494 39.5119 30.6597 40.0078C17.3917 43.8767 2.61367 40.3129 12.1088 37.1703Z" fill="#5382A1"/>
<path d="M23.4132 26.7886C26.1172 29.8928 22.7028 32.6864 22.7028 32.6864C22.7028 32.6864 29.5685 29.152 26.4154 24.7261C23.4705 20.5989 21.212 18.548 33.438 11.4774C33.438 11.4774 14.2474 16.257 23.4132 26.7886Z" fill="#E76F00"/>
<path d="M37.927 47.8172C37.927 47.8172 39.5122 49.1196 36.1811 50.1273C29.847 52.0408 9.81759 52.6186 4.25345 50.2035C2.25337 49.336 6.00423 48.1318 7.18403 47.879C8.41446 47.6129 9.11773 47.6626 9.11773 47.6626C6.89334 46.1 -5.25973 50.7308 2.94462 52.0568C25.3188 55.6751 43.7305 50.4277 37.927 47.8172ZM14.4798 30.8291C14.4798 30.8291 4.29175 33.2423 10.8721 34.1184C13.6504 34.4893 19.1891 34.4055 24.3483 33.9743C28.5646 33.6199 32.7983 32.8657 32.7983 32.8657C32.7983 32.8657 31.3116 33.5006 30.236 34.233C19.8901 36.9464 -0.096486 35.6841 5.65739 32.9086C10.5234 30.563 14.4798 30.8291 14.4798 30.8291ZM32.7563 41.0163C43.2737 35.5665 38.4108 30.3293 35.0167 31.035C34.1847 31.2075 33.8139 31.3571 33.8139 31.3571C33.8139 31.3571 34.1227 30.8748 34.7126 30.666C41.4271 28.3119 46.5912 37.6088 32.545 41.2909C32.545 41.2911 32.7078 41.1461 32.7563 41.0163Z" fill="#5382A1"/>
<path d="M26.4154 0.0600984C26.4154 0.0600984 32.24 5.8705 20.891 14.8048C11.7904 21.9718 18.8158 26.0582 20.8873 30.727C15.575 25.9476 11.6765 21.7402 14.292 17.8244C18.1307 12.076 28.7654 9.28925 26.4154 0.0600984Z" fill="#E76F00"/>
<path d="M15.5133 55.7839C25.6085 56.4284 41.1108 55.4264 41.4779 50.663C41.4779 50.663 40.7722 52.4689 33.1348 53.9029C24.5183 55.5197 13.8912 55.331 7.58813 54.2947C7.5883 54.2947 8.8783 55.3597 15.5133 55.7839Z" fill="#5382A1"/>
</g>
<defs>
<clipPath id="clip0_40_380">
<rect width="41.5566" height="56" fill="white" transform="translate(0.0507812)"/>
</clipPath>
</defs>
</svg>
