<svg width="56" height="56" viewBox="0 0 56 56" fill="none" xmlns="http://www.w3.org/2000/svg">
<g clip-path="url(#clip0_67_303)">
<path d="M0 4.10745C0 1.90212 1.85369 0.112061 4.13875 0.112061H51.8613C54.1472 0.112061 56 1.90212 56 4.10745V51.8933C56 54.0993 54.1472 55.8881 51.8613 55.8881H4.13875C1.85391 55.8881 0 54.0995 0 51.894V4.1068V4.10745Z" fill="#006699"/>
<path d="M17.0179 46.7892V21.6787H8.63798V46.7892H17.0187H17.0179ZM12.8297 18.2508C15.7513 18.2508 17.5702 16.3227 17.5702 13.913C17.5155 11.4484 15.7513 9.57397 12.8852 9.57397C10.0172 9.57397 8.14404 11.4484 8.14404 13.9127C8.14404 16.3224 9.96229 18.2506 12.7748 18.2506H12.829L12.8297 18.2508ZM21.6562 46.7892H30.0354V32.7679C30.0354 32.0184 30.0901 31.2669 30.3115 30.7316C30.917 29.2315 32.2958 27.6787 34.6113 27.6787C37.6427 27.6787 38.8561 29.9812 38.8561 33.3572V46.7892H47.2351V32.3916C47.2351 24.679 43.1016 21.09 37.5884 21.09C33.0684 21.09 31.0833 23.6062 29.9803 25.32H30.0361V21.6795H21.6567C21.766 24.0352 21.656 46.7901 21.656 46.7901L21.6562 46.7892Z" fill="white"/>
</g>
<defs>
<clipPath id="clip0_67_303">
<rect width="56" height="56" fill="white"/>
</clipPath>
</defs>
</svg>
