<svg width="59" height="56" viewBox="0 0 59 56" fill="none" xmlns="http://www.w3.org/2000/svg">
<g clip-path="url(#clip0_40_189)">
<path fill-rule="evenodd" clip-rule="evenodd" d="M31.6691 1.80566C31.2895 1.80566 30.937 1.88722 30.6116 1.99589C31.3032 2.45769 31.6827 3.06894 31.8726 3.76153C31.8863 3.85675 31.9133 3.92464 31.9267 4.01965C31.9404 4.10121 31.954 4.18255 31.954 4.26411C32.0082 5.45949 31.642 5.60873 31.3844 6.31519C30.9912 7.22534 31.0996 8.20317 31.5743 8.99098C31.615 9.08599 31.6691 9.19466 31.7371 9.28967C31.2218 5.85339 34.0826 5.33715 34.6114 4.26411C34.6521 3.32685 33.8791 2.70215 33.2692 2.26746C32.6859 1.91434 32.1571 1.80566 31.6691 1.80566ZM35.9808 2.57981C35.9263 2.89237 35.9672 2.81082 35.9536 2.97372C35.9401 3.08239 35.9401 3.21818 35.9265 3.32685C35.8994 3.43552 35.8724 3.54419 35.8317 3.65286C35.8044 3.76153 35.7639 3.8702 35.7232 3.97887C35.6688 4.08754 35.6283 4.18276 35.5742 4.29122C35.5333 4.34566 35.5062 4.39989 35.4655 4.45433L35.3841 4.57646C35.3163 4.67168 35.2486 4.76668 35.1808 4.84824C35.0994 4.9298 35.0318 5.0248 34.9368 5.0927V5.10636C34.8554 5.17425 34.7742 5.2556 34.6791 5.3237C34.3944 5.54083 34.069 5.70394 33.7706 5.90762C33.6758 5.97552 33.5809 6.02996 33.4995 6.11151C33.4047 6.17941 33.3233 6.2473 33.2421 6.32864C33.147 6.4102 33.0793 6.49176 32.9979 6.58676C32.9301 6.66832 32.8489 6.76333 32.7945 6.85855C32.7268 6.95356 32.659 7.04856 32.6047 7.14378C32.5505 7.25245 32.5098 7.34746 32.4557 7.45613C32.415 7.5648 32.3743 7.66002 32.3472 7.76848C32.311 7.88039 32.2793 7.9937 32.2522 8.10816C32.2387 8.16239 32.2387 8.23028 32.2251 8.28472C32.2115 8.33895 32.2115 8.39339 32.198 8.44762C32.198 8.55629 32.1844 8.67863 32.1844 8.7873C32.1844 8.86864 32.1844 8.9502 32.198 9.03176C32.198 9.14043 32.2117 9.2491 32.2387 9.37122C32.2524 9.47989 32.2795 9.58856 32.3065 9.69723C32.3472 9.8059 32.3743 9.91458 32.415 10.023C32.4423 10.0911 32.4828 10.159 32.5098 10.2135L29.3915 9.00443C28.8628 8.85519 28.3475 8.71919 27.8187 8.59707L26.9646 8.39318C26.1486 8.23021 25.3252 8.10787 24.4971 8.0266C24.4699 8.0266 24.4562 8.01294 24.4292 8.01294C23.6157 7.93138 22.8157 7.89082 22.0022 7.89082C21.4057 7.89082 20.8092 7.91793 20.2261 7.95871C19.399 8.01294 18.5719 8.12161 17.745 8.2574C17.5415 8.28472 17.338 8.32529 17.1349 8.36607C16.7144 8.44762 16.3078 8.54263 15.9146 8.63785L15.3044 8.80075C15.1009 8.88231 14.9112 8.97732 14.7213 9.05887L14.274 9.26276C14.2467 9.27621 14.2197 9.27621 14.2062 9.28967C14.0707 9.35756 13.9486 9.412 13.8265 9.47989C13.786 9.49355 13.7587 9.50722 13.7316 9.52067C13.5827 9.58856 13.4335 9.66991 13.3114 9.73801C13.2165 9.77879 13.1215 9.83302 13.0403 9.8738C12.9996 9.90112 12.9452 9.92824 12.9182 9.94169C12.7961 10.0096 12.6742 10.0775 12.5657 10.1456C12.4436 10.2133 12.3351 10.2814 12.2403 10.3493C12.1454 10.4172 12.0504 10.4714 11.9692 10.5393C11.9555 10.5529 11.9419 10.5529 11.9285 10.5666C11.8471 10.6208 11.7522 10.6887 11.6708 10.7566L11.6435 10.7839L11.4404 10.9468C11.4132 10.9603 11.3859 10.9876 11.359 11.0011C11.2913 11.0555 11.2235 11.1234 11.1555 11.1776C11.1421 11.205 11.115 11.2184 11.1014 11.2321C11.02 11.3136 10.9388 11.3813 10.8574 11.4629C10.8437 11.4629 10.8437 11.4765 10.8301 11.4902C10.7489 11.5581 10.6675 11.6394 10.5861 11.721C10.5726 11.7347 10.5726 11.7483 10.559 11.7483C10.4879 11.8175 10.42 11.8899 10.3557 11.9655C10.3284 11.9928 10.2879 12.0199 10.2608 12.047C10.1931 12.1286 10.1117 12.2099 10.0303 12.2915C10.0166 12.3188 9.98955 12.3322 9.97612 12.3594C9.86765 12.468 9.7726 12.5767 9.66412 12.6854L9.62363 12.7261C9.40668 12.9569 9.17609 13.1879 8.93207 13.3916C8.69168 13.6065 8.43807 13.8061 8.17275 13.9892C7.90981 14.174 7.63836 14.3462 7.35929 14.5054C7.08257 14.6575 6.79738 14.7936 6.50512 14.913C6.21676 15.0357 5.92268 15.1444 5.62389 15.2388C5.05445 15.3612 4.47137 15.5919 3.96969 15.6327C3.86122 15.6327 3.73931 15.6601 3.63084 15.6735C3.50873 15.7008 3.40025 15.7279 3.29178 15.7551L2.96656 15.8774C2.85787 15.918 2.7494 15.9724 2.64092 16.0266C2.54609 16.0945 2.43761 16.149 2.34277 16.2169C2.24773 16.2848 2.15289 16.3661 2.07148 16.4479C1.97664 16.5158 1.88181 16.6108 1.8004 16.6923C1.71899 16.7873 1.63779 16.8689 1.56981 16.9639C1.50204 17.0726 1.42084 17.1678 1.3665 17.2762C1.29872 17.3715 1.23095 17.4801 1.17682 17.5888C1.12227 17.7109 1.06835 17.8196 1.02764 17.9419C0.984842 18.0589 0.944131 18.1766 0.905527 18.2951C0.878461 18.4037 0.851395 18.5124 0.837757 18.6209C0.837757 18.6347 0.824119 18.6482 0.824119 18.6619C0.797052 18.784 0.797052 18.9471 0.783414 19.0284C0.769986 19.1236 0.756348 19.205 0.756348 19.3002C0.756348 19.3544 0.756348 19.4223 0.769986 19.4768C0.783624 19.5718 0.797262 19.6533 0.824328 19.7349C0.851395 19.8162 0.878461 19.8978 0.919166 19.9794V19.9928C0.95987 20.0744 1.014 20.1559 1.06814 20.2375C1.12269 20.3188 1.17682 20.4004 1.24438 20.4819C1.31236 20.5498 1.39377 20.6312 1.47518 20.6993C1.55638 20.7806 1.63779 20.8485 1.73263 20.9166C2.05805 21.2019 2.13946 21.2969 2.55972 21.5142C2.62749 21.555 2.69527 21.5821 2.77667 21.6229C2.79031 21.6229 2.80374 21.6363 2.81738 21.6363C2.81738 21.6636 2.81738 21.6771 2.83081 21.7044C2.84445 21.8131 2.87151 21.9218 2.89879 22.0302C2.9246 22.1421 2.96084 22.2512 3.00705 22.3562C3.04776 22.4378 3.07503 22.5194 3.11553 22.6009C3.12917 22.628 3.14281 22.6551 3.15623 22.6688C3.21058 22.7775 3.26471 22.8725 3.31905 22.9675L3.52236 23.2527C3.59013 23.3343 3.67133 23.4293 3.75295 23.5108C3.83415 23.5924 3.91556 23.6601 4.0104 23.7418C4.0104 23.7418 4.02404 23.7553 4.03767 23.7553C4.11887 23.8232 4.20028 23.8913 4.28169 23.9455C4.37653 24.0134 4.47137 24.0679 4.57984 24.1221C4.67489 24.1765 4.78336 24.2308 4.89184 24.2713C4.97304 24.3123 5.06808 24.3394 5.16292 24.3665C5.17656 24.3802 5.18999 24.3802 5.21706 24.3939C5.27161 24.4073 5.33917 24.421 5.3933 24.4344C5.35281 25.168 5.33917 25.8606 5.44785 26.1051C5.56955 26.3769 6.16627 25.5483 6.76278 24.5976C6.68137 25.5346 6.62723 26.635 6.76278 26.9608C6.91196 27.3005 7.72542 26.2411 8.4304 25.0728C18.0434 22.8454 26.8156 29.501 27.7375 38.9001C27.5613 37.4331 25.7579 36.6182 24.9308 36.8219C24.5242 37.827 23.8326 39.1174 22.7208 39.9189C22.8179 39.0118 22.7722 38.0952 22.5853 37.2023C22.2871 38.4519 21.704 39.62 20.904 40.6251C19.6162 40.7202 18.3281 40.0955 17.6502 39.158C17.5958 39.1174 17.5824 39.0361 17.5417 38.9814C17.501 38.8864 17.4603 38.7914 17.4332 38.6964C17.3937 38.6053 17.3663 38.5094 17.3518 38.4112C17.3382 38.3159 17.3382 38.2209 17.3382 38.1123V37.9084C17.3518 37.8134 17.3789 37.7184 17.4059 37.6233C17.4332 37.5281 17.4603 37.4331 17.501 37.3381C17.5551 37.2429 17.5958 37.1479 17.6636 37.0529C17.8942 36.4009 17.8942 35.8712 17.4739 35.5588C17.3925 35.5055 17.3062 35.4599 17.2163 35.4228C17.1619 35.4094 17.0942 35.3822 17.04 35.3686C16.9993 35.3549 16.9723 35.3413 16.9316 35.3278C16.8365 35.3005 16.7417 35.2734 16.6468 35.2599C16.5543 35.2331 16.4585 35.2194 16.3621 35.2191C16.2671 35.2055 16.1586 35.1918 16.0637 35.1918C15.996 35.1918 15.9282 35.2057 15.8602 35.2057C15.752 35.2057 15.6571 35.2191 15.5623 35.2463C15.4672 35.2599 15.3724 35.2736 15.2774 35.3007C15.1825 35.328 15.0875 35.3551 14.9926 35.3957C14.8978 35.4365 14.8164 35.4773 14.7216 35.518C14.6401 35.5588 14.5587 35.613 14.4639 35.6538C11.3049 37.7184 13.1895 42.5539 15.3451 43.953C14.5317 44.1022 13.7046 44.2788 13.4742 44.4553L13.4469 44.4826C14.0302 44.8358 14.6401 45.1347 15.2774 45.3928C16.1452 45.6778 17.0671 45.9359 17.4739 46.0446V46.0583C18.5973 46.289 19.7459 46.3712 20.8906 46.3027C26.8968 45.8817 31.8185 41.3043 32.7134 35.2736C32.7406 35.3957 32.7677 35.5044 32.7948 35.6267C32.8355 35.8712 32.8896 36.1291 32.9167 36.3874V36.4009C32.9439 36.5232 32.9574 36.6455 32.971 36.754V36.8086C32.9846 36.9305 32.9983 37.0529 32.9983 37.1618C33.0117 37.311 33.0251 37.4602 33.0251 37.6099V37.8272C33.0251 37.8951 33.0388 37.9765 33.0388 38.0444C33.0388 38.1259 33.0251 38.2075 33.0251 38.289V38.4791C33.0251 38.5743 33.0115 38.6556 33.0115 38.7508C33.0115 38.8051 33.0115 38.8595 32.9981 38.9274C32.9981 39.0224 32.9844 39.1174 32.9844 39.2261C32.9708 39.2669 32.9708 39.3076 32.9708 39.3484C32.9574 39.4571 32.9437 39.5523 32.9301 39.6608C32.9301 39.7016 32.9301 39.7423 32.9167 39.7831C32.903 39.9189 32.876 40.0412 32.8623 40.177V40.2041C32.8353 40.3265 32.8082 40.4622 32.7809 40.5846V40.6251L32.6997 40.9919C32.6997 41.0056 32.6861 41.0327 32.6861 41.0464C32.6588 41.1685 32.6317 41.2908 32.5912 41.413V41.4537C32.5505 41.5897 32.5098 41.7119 32.4828 41.8342C32.4691 41.8476 32.4691 41.8613 32.4691 41.8613L32.347 42.2687C32.2929 42.4047 32.2522 42.5268 32.198 42.6626C32.1437 42.7986 32.103 42.9344 32.0489 43.0565C31.9945 43.1925 31.9404 43.3146 31.886 43.4504H31.8726C31.8181 43.5727 31.7641 43.7085 31.6964 43.8308C31.6827 43.8716 31.6691 43.8987 31.6557 43.9258C31.642 43.9395 31.642 43.9532 31.6284 43.9666C30.7472 45.7459 29.4457 47.3079 27.8185 48.5304C27.7101 48.5983 27.6016 48.6796 27.4933 48.7614C27.466 48.7885 27.4253 48.802 27.3983 48.8293C27.3034 48.8972 27.2084 48.9651 27.1001 49.033L27.1406 49.1145H27.1543L27.7237 49.033H27.7373C28.0898 48.9785 28.4423 48.9106 28.7948 48.8427C28.8896 48.8291 28.9983 48.802 29.0932 48.7748C29.1609 48.7612 29.2151 48.7477 29.2828 48.7341C29.3779 48.7206 29.4727 48.6933 29.5676 48.6798C29.649 48.6525 29.7304 48.6391 29.8118 48.6119C31.1676 48.2859 32.4828 47.8376 33.7438 47.3079C31.5879 50.2555 28.6998 52.6323 25.3238 54.1943C26.8832 54.0856 28.4423 53.8277 29.9473 53.393C35.4114 51.7766 40.0076 48.0957 42.7598 43.138C42.2012 46.2828 40.9558 49.2651 39.1128 51.8716C40.4267 51.0033 41.6407 49.9921 42.7327 48.8564C45.7698 45.678 47.7629 41.644 48.4408 37.311C48.9033 39.4606 49.0359 41.6683 48.834 43.8579C58.623 30.1801 49.6475 15.9997 45.8917 12.2646C45.8783 12.2372 45.8647 12.2238 45.8647 12.1967C45.8512 12.2101 45.8512 12.2101 45.8512 12.2238C45.8512 12.2101 45.8512 12.2101 45.8376 12.1965C45.8376 12.3596 45.824 12.5225 45.8103 12.6856C45.7698 12.9979 45.7291 13.2968 45.6748 13.5957C45.607 13.8944 45.5258 14.1933 45.4444 14.492C45.3479 14.7861 45.2394 15.0762 45.1192 15.3614C44.9945 15.6428 44.8587 15.9192 44.7122 16.19C44.5632 16.4479 44.4004 16.7196 44.2241 16.9641C44.0497 17.2168 43.8642 17.4615 43.6681 17.6977C43.4648 17.9421 43.248 18.1595 43.0311 18.3766C42.9034 18.4937 42.7723 18.607 42.6379 18.7163C42.5294 18.8113 42.4344 18.8929 42.3259 18.9879C42.0819 19.1781 41.8379 19.3547 41.5668 19.5176C41.3091 19.6807 41.038 19.8436 40.7668 19.9796C40.482 20.1154 40.1973 20.2375 39.9128 20.3598C39.6279 20.4685 39.3295 20.5637 39.0314 20.645C38.7316 20.7259 38.4284 20.7939 38.1229 20.8489C37.8111 20.9032 37.4993 20.9303 37.2009 20.9574C36.984 20.9711 36.767 20.9847 36.5501 20.9847C36.2383 20.9847 35.9265 20.9574 35.6281 20.9301C35.3163 20.9032 35.0046 20.8624 34.7062 20.7945C34.3944 20.7398 34.096 20.6585 33.7977 20.5635H33.7843C34.0826 20.5362 34.3808 20.509 34.6791 20.4548C34.985 20.4013 35.2882 20.3332 35.5876 20.2509C35.8858 20.1703 36.1799 20.0751 36.4689 19.9659C36.767 19.8572 37.0517 19.7214 37.3228 19.5854C37.6077 19.4497 37.8654 19.3002 38.1365 19.1373C38.3941 18.9607 38.6516 18.7842 38.8958 18.594C39.1387 18.4048 39.3696 18.2006 39.5872 17.9827C39.8178 17.7788 40.0211 17.548 40.2244 17.3172C40.4226 17.0794 40.6125 16.8347 40.7938 16.5836C40.8211 16.5431 40.8482 16.4886 40.8752 16.4479C41.0108 16.2305 41.1463 16.0132 41.2684 15.7958C41.4176 15.5266 41.5533 15.2501 41.6753 14.9675C41.7977 14.6831 41.9063 14.393 42.0005 14.0981C42.0955 13.8129 42.1633 13.514 42.2311 13.2153C42.2854 12.9029 42.3395 12.604 42.3666 12.3051C42.3939 11.9928 42.4209 11.6804 42.4209 11.3815C42.4209 11.1642 42.4073 10.9468 42.3937 10.7295C42.3668 10.4172 42.3261 10.1185 42.2854 9.81936C42.232 9.513 42.164 9.20934 42.0819 8.90942C41.987 8.62419 41.8922 8.3255 41.7837 8.04026C41.6753 7.75503 41.5397 7.46979 41.404 7.19801C41.255 6.92644 41.1058 6.65487 40.943 6.39675C40.77 6.14222 40.5892 5.89309 40.4008 5.64971C40.1967 5.41541 39.9887 5.18445 39.777 4.95691C39.6628 4.84039 39.5453 4.72718 39.4246 4.61745C38.8172 4.14488 38.1883 3.70068 37.54 3.28628C37.4451 3.23184 37.3637 3.19127 37.2687 3.15049C36.8214 2.86526 36.4011 2.7156 35.9808 2.57981Z" fill="#E0234E"/>
</g>
<defs>
<clipPath id="clip0_40_189">
<rect width="57.8667" height="56" fill="white" transform="translate(0.756348)"/>
</clipPath>
</defs>
</svg>
