<svg width="53" height="56" viewBox="0 0 53 56" fill="none" xmlns="http://www.w3.org/2000/svg">
<path d="M24.1893 0.710941C25.5818 -0.0804069 27.3955 -0.0839813 28.7868 0.710941C35.7861 4.63769 42.7876 8.55829 49.7858 12.4874C51.102 13.2236 51.9825 14.678 51.9691 16.1838V39.8087C51.9789 41.3769 51.0114 42.866 49.6228 43.5855C42.6464 47.4906 35.6737 51.4005 28.6986 55.3056C27.2773 56.1124 25.4272 56.0503 24.0503 55.1773C21.9588 53.9735 19.8637 52.7757 17.772 51.573C17.3446 51.32 16.8628 51.1187 16.561 50.7072C16.8278 50.3502 17.3048 50.3057 17.6924 50.1498C18.5655 49.8742 19.3673 49.4317 20.1694 49.0024C20.3722 48.8646 20.6198 48.9174 20.8142 49.0407C22.6027 50.0589 24.3754 51.1066 26.1698 52.115C26.5527 52.3344 26.9403 52.0431 27.2675 51.862C34.1134 48.0204 40.9678 44.1934 47.8125 40.3506C48.0661 40.2295 48.2063 39.9622 48.1857 39.6863C48.1905 31.893 48.1869 24.0983 48.1881 16.305C48.2171 15.992 48.0347 15.7042 47.7497 15.5762C40.7975 11.6889 33.849 7.79574 26.8981 3.90751C26.7776 3.82531 26.635 3.7812 26.4888 3.78099C26.3427 3.78077 26.1999 3.82446 26.0792 3.90632C19.1283 7.79574 12.181 11.6925 5.23003 15.5795C4.94602 15.7078 4.75541 15.9908 4.78921 16.305C4.79041 24.0983 4.78921 31.893 4.78921 39.6875C4.77716 39.8221 4.80693 39.9571 4.87452 40.0744C4.9421 40.1917 5.04426 40.2856 5.16723 40.3435C7.02212 41.3878 8.87941 42.4248 10.7355 43.4656C11.7811 44.0244 13.065 44.3564 14.2171 43.9282C15.2337 43.5662 15.9463 42.5362 15.9269 41.4644C15.9365 33.7166 15.9221 25.9675 15.9341 18.2209C15.9087 17.8769 16.2374 17.5928 16.5742 17.6251C17.4654 17.6192 18.3579 17.6132 19.2491 17.6275C19.6211 17.6192 19.8771 17.9895 19.8311 18.336C19.8275 26.133 19.8407 33.9301 19.8251 41.727C19.8275 43.8049 18.9677 46.066 17.0318 47.0827C14.6469 48.3094 11.6991 48.0492 9.34303 46.873C7.30333 45.8622 5.35684 44.6694 3.35334 43.5865C1.96107 42.871 0.998428 41.3759 1.00823 39.8089V16.1838C0.993628 14.6468 1.90907 13.166 3.26634 12.4406C10.2415 8.53227 17.2154 4.62101 24.1893 0.710941Z" fill="#8CC84B"/>
<path d="M30.2745 17.076C33.3166 16.8816 36.5734 16.9609 39.3109 18.4488C41.4304 19.5891 42.6055 21.9822 42.6429 24.3201C42.5837 24.6354 42.2516 24.8094 41.9484 24.7877C41.0658 24.7866 40.1829 24.7997 39.3003 24.7818C38.9259 24.7961 38.7083 24.4533 38.6613 24.1247C38.4077 23.0061 37.7932 21.8982 36.7328 21.3586C35.1049 20.5494 33.2174 20.5901 31.4423 20.607C30.1465 20.6753 28.753 20.7867 27.6551 21.5433C26.8123 22.1164 26.5563 23.2734 26.8571 24.2051C27.1407 24.8741 27.9186 25.09 28.555 25.289C32.2212 26.241 36.1062 26.1462 39.7023 27.3991C41.1912 27.9098 42.6477 28.9028 43.1573 30.4505C43.8239 32.5249 43.5317 35.0044 42.0452 36.6697C40.8398 38.0401 39.0841 38.786 37.333 39.1911C35.0035 39.7068 32.586 39.7199 30.2203 39.4909C27.9958 39.2391 25.6808 38.6589 23.9636 37.154C22.4951 35.8881 21.7779 33.9155 21.8491 32.0117C21.8661 31.6902 22.1885 31.466 22.4987 31.4925C23.3875 31.4853 24.2764 31.4829 25.1652 31.4936C25.5202 31.4684 25.7835 31.7731 25.8017 32.1053C25.9657 33.1711 26.3691 34.2897 27.3051 34.9216C29.1116 36.0787 31.3783 35.9995 33.4468 36.0318C35.1605 35.9564 37.0842 35.9335 38.4827 34.809C39.2205 34.1675 39.4391 33.0944 39.2397 32.1712C39.0237 31.3918 38.2025 31.0286 37.4972 30.7911C33.878 29.6544 29.9497 30.0668 26.3655 28.7814C24.9104 28.2709 23.5033 27.3056 22.9443 25.8214C22.1643 23.7208 22.5217 21.1225 24.164 19.5134C25.7653 17.9129 28.0768 17.2967 30.2745 17.076Z" fill="#8CC84B"/>
</svg>
