<svg width="64" height="56" viewBox="0 0 64 56" fill="none" xmlns="http://www.w3.org/2000/svg">
<g clip-path="url(#clip0_40_225)">
<path d="M63.8874 28.0064C63.8874 23.8532 58.6377 19.9173 50.5891 17.4765C52.4465 9.34902 51.621 2.88283 47.9836 0.812632C47.1452 0.327029 46.1649 0.0970073 45.0943 0.0970073V2.94673C45.6876 2.94673 46.1649 3.06174 46.5647 3.27898C48.3189 4.27575 49.08 8.07111 48.4866 12.9527C48.3447 14.1539 48.1126 15.419 47.8288 16.7097C45.3007 16.0963 42.5404 15.6235 39.6383 15.3168C37.897 12.9527 36.0912 10.8058 34.2725 8.92731C38.4774 5.05527 42.4243 2.93395 45.1072 2.93395V0.0842285C41.5601 0.0842285 36.9167 2.58892 32.2216 6.93378C27.5266 2.61447 22.8831 0.135345 19.336 0.135345V2.98506C22.006 2.98506 25.9659 5.0936 30.1708 8.94009C28.365 10.8186 26.5592 12.9527 24.8437 15.3168C21.9286 15.6235 19.1684 16.0963 16.6402 16.7225C16.3436 15.4446 16.1243 14.205 15.9695 13.0166C15.3633 8.13501 16.1114 4.33964 17.8527 3.3301C18.2397 3.10008 18.7427 2.99784 19.336 2.99784V0.148124C18.2526 0.148124 17.2723 0.378146 16.421 0.863748C12.7965 2.93395 11.9839 9.38735 13.8542 17.4892C5.83131 19.9428 0.607422 23.866 0.607422 28.0064C0.607422 32.1596 5.85711 36.0955 13.9058 38.5363C12.0484 46.6637 12.8739 53.1299 16.5113 55.2001C17.3497 55.6857 18.3299 55.9157 19.4134 55.9157C22.9605 55.9157 27.604 53.4111 32.299 49.0662C36.9941 53.3855 41.6375 55.8646 45.1846 55.8646C46.2681 55.8646 47.2484 55.6346 48.0997 55.149C51.7241 53.0788 52.5367 46.6254 50.6665 38.5235C58.6635 36.0827 63.8874 32.1468 63.8874 28.0064ZM47.0936 19.4828C46.6163 21.1313 46.023 22.8309 45.3523 24.5305C44.8234 23.5082 44.2688 22.4858 43.6626 21.4635C43.0693 20.4412 42.4372 19.4444 41.8052 18.4732C43.6368 18.7416 45.4039 19.0738 47.0936 19.4828ZM41.1861 33.0924C40.18 34.8176 39.1481 36.4533 38.0775 37.974C36.1557 38.1401 34.208 38.2296 32.2474 38.2296C30.2997 38.2296 28.3521 38.1401 26.4431 37.9868C25.3725 36.4661 24.3277 34.8432 23.3217 33.1308C22.3414 31.4567 21.4514 29.7571 20.6388 28.0447C21.4385 26.3323 22.3414 24.6199 23.3088 22.9459C24.3149 21.2207 25.3467 19.585 26.4173 18.0643C28.3392 17.8982 30.2869 17.8087 32.2474 17.8087C34.1951 17.8087 36.1428 17.8982 38.0517 18.0515C39.1223 19.5722 40.1671 21.1952 41.1732 22.9076C42.1535 24.5816 43.0435 26.2812 43.8561 27.9936C43.0435 29.706 42.1535 31.4184 41.1861 33.0924ZM45.3523 31.4312C46.0488 33.1435 46.6421 34.8559 47.1323 36.5172C45.4426 36.9261 43.6626 37.2712 41.8181 37.5395C42.4501 36.5555 43.0822 35.546 43.6755 34.5109C44.2688 33.4886 44.8234 32.4535 45.3523 31.4312ZM32.2732 45.0664C31.0737 43.8396 29.8741 42.4722 28.6874 40.9771C29.8483 41.0282 31.035 41.0665 32.2345 41.0665C33.447 41.0665 34.6465 41.041 35.8203 40.9771C34.6594 42.4722 33.4599 43.8396 32.2732 45.0664ZM22.6767 37.5395C20.8452 37.2712 19.0781 36.9389 17.3884 36.53C17.8656 34.8815 18.4589 33.1819 19.1297 31.4823C19.6585 32.5046 20.2131 33.5269 20.8194 34.5492C21.4256 35.5716 22.0447 36.5683 22.6767 37.5395ZM32.2087 10.9464C33.4083 12.1732 34.6078 13.5405 35.7945 15.0357C34.6336 14.9846 33.447 14.9462 32.2474 14.9462C31.035 14.9462 29.8354 14.9718 28.6616 15.0357C29.8225 13.5405 31.0221 12.1732 32.2087 10.9464ZM22.6638 18.4732C22.0318 19.4572 21.3998 20.4668 20.8065 21.5019C20.2131 22.5242 19.6585 23.5465 19.1297 24.5688C18.4331 22.8564 17.8398 21.144 17.3497 19.4828C19.0394 19.0866 20.8194 18.7416 22.6638 18.4732ZM10.9907 34.4726C6.42464 32.5429 3.47089 30.0127 3.47089 28.0064C3.47089 26.0001 6.42464 23.457 10.9907 21.5402C12.1 21.0674 13.3124 20.6457 14.5636 20.2495C15.2988 22.7542 16.2662 25.3611 17.4657 28.0319C16.2791 30.69 15.3246 33.2841 14.6023 35.776C13.3253 35.3799 12.1129 34.9454 10.9907 34.4726ZM17.9301 52.7338C16.1759 51.737 15.4149 47.9416 16.0082 43.0601C16.1501 41.8588 16.3823 40.5937 16.666 39.303C19.1941 39.9164 21.9544 40.3892 24.8566 40.6959C26.5979 43.0601 28.4037 45.2069 30.2224 47.0854C26.0174 50.9575 22.0705 53.0788 19.3876 53.0788C18.8072 53.066 18.3171 52.951 17.9301 52.7338ZM48.5253 42.9962C49.1315 47.8777 48.3834 51.6731 46.6421 52.6827C46.2552 52.9127 45.7521 53.0149 45.1588 53.0149C42.4888 53.0149 38.529 50.9064 34.3241 47.0599C36.1299 45.1814 37.9357 43.0473 39.6512 40.6832C42.5662 40.3765 45.3265 39.9036 47.8546 39.2775C48.1513 40.5682 48.3834 41.8077 48.5253 42.9962ZM53.4912 34.4726C52.382 34.9454 51.1695 35.3671 49.9184 35.7632C49.1831 33.2586 48.2158 30.6516 47.0162 27.9808C48.2029 25.3228 49.1573 22.7286 49.8797 20.2367C51.1566 20.6329 52.3691 21.0674 53.5041 21.5402C58.0702 23.4698 61.024 26.0001 61.024 28.0064C61.0111 30.0127 58.0573 32.5557 53.4912 34.4726Z" fill="#61DAFB"/>
<path d="M32.2345 33.8464C35.49 33.8464 38.1291 31.2317 38.1291 28.0064C38.1291 24.781 35.49 22.1664 32.2345 22.1664C28.9789 22.1664 26.3398 24.781 26.3398 28.0064C26.3398 31.2317 28.9789 33.8464 32.2345 33.8464Z" fill="#61DAFB"/>
</g>
<defs>
<clipPath id="clip0_40_225">
<rect width="63.28" height="56" fill="white" transform="translate(0.607422)"/>
</clipPath>
</defs>
</svg>
