<svg width="50" height="50" viewBox="0 0 50 50" fill="none" xmlns="http://www.w3.org/2000/svg">
<path d="M33.0625 22.9167C35.6907 23.7335 37.968 25.4101 39.5285 27.6771C41.089 29.9442 41.8421 32.67 41.6667 35.4167H33.3333" stroke="#434361" stroke-width="2" stroke-linecap="round" stroke-linejoin="round"/>
<path d="M16.9377 22.9167C14.3095 23.7335 12.0322 25.4101 10.4717 27.6771C8.9112 29.9442 8.15815 32.67 8.33355 35.4167H16.6669" stroke="#434361" stroke-width="2" stroke-linecap="round" stroke-linejoin="round"/>
<path d="M33.0625 37.5C34.875 16.6667 29.1666 9.08335 26.3541 6.75002C25.9768 6.42725 25.4965 6.24988 25 6.24988C24.5034 6.24988 24.0231 6.42725 23.6458 6.75002C20.8333 9.08335 15.125 16.6667 16.9375 37.5H33.0625ZM31.25 41.6667V37.5H18.75V41.6667C18.75 42.2192 18.9694 42.7491 19.3601 43.1398C19.7509 43.5305 20.2808 43.75 20.8333 43.75H29.1666C29.7192 43.75 30.2491 43.5305 30.6398 43.1398C31.0305 42.7491 31.25 42.2192 31.25 41.6667Z" fill="#434361" stroke="#434361" stroke-width="2" stroke-linecap="round" stroke-linejoin="round"/>
</svg>
