<svg width="57" height="56" viewBox="0 0 57 56" fill="none" xmlns="http://www.w3.org/2000/svg">
<g clip-path="url(#clip0_40_220)">
<path d="M51.7689 2.92017C50.9812 4.80115 49.9819 6.58736 48.7785 8.22776C43.5125 2.96391 36.3649 0.00390625 28.9181 0.00390625C13.5141 0.00390625 0.837891 12.6896 0.837891 28.1094C0.837891 35.801 3.98871 43.1645 9.561 48.4721L10.5967 49.3908C15.6584 53.6558 22.0695 56.0034 28.6847 56.0034C43.3302 56.0034 55.6417 44.5279 56.6847 29.9029C57.4506 22.7434 55.35 13.6885 51.7689 2.92017ZM13.5506 48.6325C13.0984 49.1939 12.4055 49.522 11.6834 49.522C10.3633 49.522 9.28384 48.4357 9.28384 47.1161C9.28384 45.7965 10.3706 44.7102 11.6834 44.7102C12.2304 44.7102 12.7702 44.8997 13.1932 45.2497C14.2216 46.0808 14.382 47.6046 13.5506 48.6325ZM51.6522 40.2191C44.7233 49.4564 29.9246 46.3433 20.4357 46.788C20.4357 46.788 18.7509 46.8901 17.0588 47.1671C17.0588 47.1671 17.6933 46.8974 18.5175 46.5839C25.1765 44.2654 28.3273 43.8134 32.3753 41.7356C39.997 37.857 47.5313 29.3706 49.0994 20.5417C46.1966 29.0353 37.4005 36.3332 29.3849 39.3005C23.8929 41.3273 13.9736 43.2958 13.9736 43.2958L13.5725 43.0844C6.81862 39.7963 6.61439 25.1639 18.8895 20.4396C24.2648 18.3691 29.4068 19.5064 35.2125 18.1212C41.412 16.6485 48.5816 11.997 51.499 5.9312C54.7665 15.6351 58.6978 30.8288 51.6522 40.2191Z" fill="#77BC1F"/>
</g>
<defs>
<clipPath id="clip0_40_220">
<rect width="56" height="56" fill="white" transform="translate(0.837891)"/>
</clipPath>
</defs>
</svg>
