<svg width="94" height="56" viewBox="0 0 94 56" fill="none" xmlns="http://www.w3.org/2000/svg">
<g clip-path="url(#clip0_40_203)">
<path d="M46.9287 0C34.4459 0 26.6446 6.22235 23.5236 18.6659C28.2051 12.4435 33.6662 10.111 39.907 11.666C43.4682 12.5533 46.0132 15.1298 48.831 17.9806C53.42 22.6246 58.7313 27.9994 70.3338 27.9994C82.8154 27.9994 90.6179 21.7771 93.7377 9.33236C89.0574 15.5547 83.5963 17.8884 77.3543 16.3334C73.7943 15.4461 71.2492 12.8696 68.4315 10.0188C63.8424 5.3748 58.53 0 46.9287 0ZM23.5236 27.9994C11.0419 27.9994 3.23945 34.2218 0.119629 46.6665C4.79995 40.4441 10.2611 38.1104 16.5031 39.6666C20.0631 40.555 22.6081 43.1304 25.4259 45.98C30.0149 50.624 35.3274 56 46.9287 56C59.4115 56 67.2128 49.7776 70.3338 37.3329C65.6523 43.5553 60.1911 45.889 53.9503 44.3328C50.3892 43.4467 47.8441 40.8691 45.0263 38.0194C40.4373 33.3754 35.126 27.9994 23.5236 27.9994Z" fill="#06B6D4"/>
</g>
<defs>
<clipPath id="clip0_40_203">
<rect width="93.6552" height="56" fill="white" transform="translate(0.101074)"/>
</clipPath>
</defs>
</svg>
