<svg width="57" height="56" viewBox="0 0 57 56" fill="none" xmlns="http://www.w3.org/2000/svg">
<g clip-path="url(#clip0_40_213)">
<path d="M0.0507812 28V0H56.0508V56H0.0507812" fill="#007ACC"/>
<path d="M12.3289 28.0981V30.3801H19.6089V51.1001H24.7749V30.3801H32.0549V28.1401C32.0549 26.8801 32.0549 25.8581 31.9989 25.8301C31.9989 25.7881 27.5609 25.7741 22.1709 25.7741L12.3709 25.8161V28.1121L12.3289 28.0981ZM45.0469 25.7601C46.4749 26.0961 47.5669 26.7401 48.5469 27.7621C49.0649 28.3221 49.8349 29.3021 49.8909 29.5541C49.8909 29.6381 47.4689 31.2761 45.9989 32.1861C45.9429 32.2281 45.7189 31.9901 45.4949 31.6261C44.7669 30.5901 44.0249 30.1421 42.8629 30.0581C41.1829 29.9461 40.0629 30.8281 40.0629 32.2981C40.0629 32.7461 40.1469 32.9981 40.3149 33.3621C40.6929 34.1321 41.3929 34.5941 43.5629 35.5461C47.5669 37.2681 49.3029 38.4021 50.3529 40.0261C51.5428 41.8461 51.8089 44.7021 51.0109 46.8441C50.1149 49.1821 47.9309 50.7641 44.8089 51.2821C43.8289 51.4501 41.5889 51.4221 40.5389 51.2401C38.2989 50.8201 36.1569 49.7001 34.8409 48.2581C34.3229 47.6981 33.3289 46.2001 33.3849 46.1021L33.9169 45.7661L36.0169 44.5481L37.5989 43.6241L37.9629 44.1141C38.4249 44.8421 39.4609 45.8221 40.0629 46.1581C41.8829 47.0961 44.3189 46.9701 45.5229 45.8781C46.0409 45.4021 46.2649 44.8981 46.2649 44.1981C46.2649 43.5541 46.1669 43.2601 45.8449 42.7701C45.3969 42.1541 44.5009 41.6501 41.9809 40.5301C39.0829 39.2981 37.8509 38.5141 36.7029 37.3101C36.0449 36.5821 35.4429 35.4481 35.1629 34.5101C34.9529 33.6981 34.8829 31.7101 35.0789 30.9121C35.6809 28.1121 37.7949 26.1521 40.8189 25.5921C41.7989 25.3961 44.1089 25.4801 45.0749 25.7321L45.0469 25.7601Z" fill="white"/>
</g>
<defs>
<clipPath id="clip0_40_213">
<rect width="56" height="56" fill="white" transform="translate(0.0507812)"/>
</clipPath>
</defs>
</svg>
